<svg xmlns="http://www.w3.org/2000/svg" width="85.188" height="84.409" viewBox="0 0 85.188 84.409">
  <path fill="#FFF" d="M84.248 42.18c0 22.778-18.648 41.248-41.655 41.248C19.59 83.428.94 64.958.94 42.178S19.59.93 42.592.93C65.6.93 84.248 19.396 84.248 42.18"/>
  <path fill="#E32329" d="M61.63 43.612c-1.733.9-4.81.704-7.168.598-3.4-.152-6.72-.768-6.7-4.246.02-3.412 3.144-3.79 6.164-4.444.216-.943.166-2.478.066-3.515-1.353-.11-3.063-.047-3.816-.863-.373-.403-.864-1.673-.268-2.122.565-.43 1.566.147 2.01.397.647.37 1.053.773 1.94.73.566-1.908-1.108-8.625 1.677-7.76 1.065 2.122-.207 5.22-.07 7.893 1.964.54 4.457-.088 6.366 0-.774 1.863-3.748 1.55-6.295 1.657-.49.78-.298 2.23-.335 3.45 3.983.128 8.246-.213 8.64 3.383.195 1.783-.517 3.963-2.21 4.842m2.01 9.487c-.157 1.664-1.093 2.623-3.215 2.388-.735.94-.64 2.198-1.273 3.116-.683.986-1.886 1.83-3.686 1.66-.796-.078-1.714-.475-2.21-1.064-.822-.973-.732-2.682-1.542-3.782-1.676.638-3.244.042-3.482-1.59-.46-3.158 2.035-7.1 3.95-7.828-.417 2.297-1.986 3.492-2.41 6.036-.12.732-.075 1.864.672 1.99 1.34.227 1.83-1.367 2.142-2.322.397-1.206.564-2.403 1.742-2.653-.088 1.69-.65 3.12-.534 5.11.117 2.007.83 4.8 3.28 3.847.96-.373 1.37-1.768 1.474-3.186.12-1.607-.308-3.426.136-4.64 1.532.255.445 5.274 3.148 3.846.62-.328.603-1.328.535-2.255-.077-1.09-.388-2.148-.803-3.185-.445-1.1-1.14-1.82-1.34-2.652-.013-.146.055-.21.2-.2.836.296 1.483 1.415 2.076 2.455.763 1.337 1.337 2.803 1.14 4.91m-17.286 6.83c-.363.663-1.048 1.443-1.806 1.992-.463.333-2.318 1.158-2.746.133-.584-1.394 1.57-1.98 2.21-2.587 1.02-.97 1.758-2.573 1.608-4.645-.136-1.87-.757-3.73-1.407-5.37-.9-2.264-2.133-4.837-1.072-7.563.914-2.348 3.312-4.305 4.422-6.5.39-.772 1.2-2.722.2-3.85-1.534-.077-2.1 1.037-2.68 1.992-.555.917-1.036 2.153-2.344 2.122-.73-.588-.127-1.54.2-2.19.723-1.427 2.227-3.196 4.088-3.384 2.506-.25 3.275 2.247 2.546 4.314-.866 2.454-3.736 4.716-4.892 7.296-1.25 2.794.663 6.213 1.41 8.358.936 2.706 1.75 7.198.264 9.883M34.03 54.16c-1.66 1.313-3.63 2.304-3.752 5.175-.038.905.303 1.885-.133 2.652-1.023-.057-1.886-.852-2.144-1.856-.678-2.65 1.84-4.346 3.35-5.504.64-.49 1.728-1.123 1.877-1.66.114-.418-.023-1.29 0-1.926.213-6.123.083-12.145-.136-18.175-.028-.894.096-1.817-.067-2.387-.233-.817-1.66-1.69-2.475-2.454-.902-.842-1.825-2.054-2.078-2.786-.48-1.377-.277-3.77 1.54-3.25.328.918.258 1.714.538 2.454.554 1.47 1.958 2.737 3.013 3.78 3.42 3.385 7.2 6.4 7.572 12.737.39 6.68-3.387 10.263-7.103 13.2m-11.587-1.59c-4.282-2.63-2.692-10.864-2.95-17.45-.005-.093-.012-.186.067-.196 3.965.03 7.896.097 11.924.065-.358 6.58 1.113 15.347-3.55 17.71-1.488.755-3.993.788-5.49-.13m21.032-24.016c.348-.507.892-1.94 1.072-2.852.233-1.19-.1-3.755 1.542-3.316 1.51.405.405 4.402-.07 5.174-.38.62-.974 1.117-1.472 1.59-.49.47-1.16 1.176-2.01.73.148-.884.542-.746.938-1.326m25.857 11.742c-.478-7.69-4.42-13.863-8.776-17.712-4.612-4.077-11.104-7.326-19.895-6.765-1.89.118-4.005.468-5.76.993-5.088 1.523-9.225 4.364-12.193 7.76-3.902 4.47-7.426 10.79-6.7 19.703.653 8.023 4.196 13.276 8.842 17.645 4.344 4.084 11.658 7.41 19.83 6.702 8.003-.695 13.525-4.128 17.818-8.758 4.124-4.45 7.363-11.01 6.833-19.568"/>
  <path fill="#E32329" d="M37.715 45.073c-.082.556-.292 2.338-.87 2.32-.8-.023-.61-4.37-.672-5.77-.07-1.65-.466-4.917.738-5.108 1.18 1.688 1.23 5.694.805 8.558m-2.948-12.936c-.097.036-.164.102-.202.2-.158 6.2-.35 13.383.202 19.303.85-.213 1.43-.98 2.012-1.658.54-.637 1.106-1.377 1.54-2.123 1.926-3.327 1.584-8.612-.136-11.808-.697-1.295-2.118-3.377-3.417-3.915M23.78 36.515c-.96.046-1.716-.113-2.678-.067-.08.033-.152.07-.202.132.177 1.927-.05 4.25.133 6.17 3.15.13 2.64-3.36 2.747-6.235"/>
  <path fill="#E32329" d="M27.733 46.133c.565.157 1.07.49 1.607.33.453-.132.7-.995.535-1.325-.297-.597-1.974-.382-2.612-.862-1.632-1.22-.348-5-.87-7.627-.228-.105-.818-.257-1.004 0-.223.04-.3.474-.337.795-.186 1.564.11 3.72-.537 5.107-.613 1.324-1.887 1.634-3.282 2.12-.206.582-.088 1.724.538 1.86.658.144 1.04-.438 1.674-.6 1.386-.35 3.227-.094 4.287.2"/>
  <path fill="#E32329" d="M29.943 43.15c.27-2.058.006-4.385 0-6.57h-2.01c-.54 2.048-1.226 7.715 2.01 6.57M54.66 37.046c-.17 1.607-.233 4.196.336 5.505.32.12.88.075 1.206 0 .473-1.468.774-4.098.27-5.704-.536-.258-1.452-.117-1.81.2M58.614 36.913c-.415.64-.34 1.633-.402 2.587-.06.952-.145 1.97 0 2.853 2.83 1.166 4.375-1.768 3.618-3.98-.384-1.124-1.973-1.716-3.216-1.46M49.706 38.57c-.9 2.11 1.393 4.26 3.684 3.782.19-1.543.304-4.085-.536-5.04-1.494-.225-2.747.318-3.148 1.26M29.138 48.325c-.17-.71-1.817-1.003-2.746-1.064-1.838-.122-3.82-.006-4.486.93.166 2.09 1.407 3.695 4.017 3.317 1.152-.168 3.554-1.803 3.215-3.182"/>
  <path fill="#222457" d="M41.198 76.78c.285.356.343.943.604 1.325-.27.156-.825.025-1.207.067.125-.54.392-.937.603-1.393M56.808 72.534c.168.676.494 1.188.804 1.726 1.595-.245.77-2.757-.804-1.726M52.986 74.127c-3.104-.488-1.902 3.984-.468 4.443 2.93.298 1.822-3.83.468-4.443M46.49 75.387c.042.71.135 1.37.267 1.99 1.716.346 1.354-2.728-.268-1.99M18.622 15.95c-.495-.17-.904-.43-1.406-.595.123.498.352.89.47 1.393.43-.15.66-.495.936-.797M73.82 28.554c-.08 2.41 4.957 1.434 4.356-1.128-.99-1.604-4.3-.49-4.355 1.128M75.564 33.994c-.516 2.78 4.1 1.97 4.42.398.268-1.318-.8-1.757-2.01-1.66-1.044.09-1.93.463-2.41 1.262M4.89 39.897c1.3.174 2.687.26 4.153.266 1.24-3.005-4.81-3.57-4.152-.266"/>
  <path fill="#222457" d="M80.987 40.03c-.287-.087-.12-.63-.334-.795-1.472 0-2.84.105-4.154.265-.124 1.385.314 2.21 1.272 2.52-.146-.01-.028.237-.066.333-.557-.155-1.182-.243-1.743-.398-.082-1.355-.312-2.918-.198-4.245h.268c.272-.003.055.474.2.596 1.48.092 3.355.068 4.49-.4-.043-.157-.1-.3-.07-.53h.47c.126.83.103 1.8.2 2.655h-.336zm-3.95 17.978c.153.757.49 1.328.67 2.057-.588-.395-1.163-.795-1.744-1.195-.71.315-1.21.836-1.808 1.26.01-.57.37-1.356.538-1.99-.413-.607-1.137-.91-1.744-1.323.632-.106 1.343-.13 2.077-.134.392-.54.49-1.373.737-2.058.333.6.58 1.284.734 2.058h2.013c.085.405-1.158.858-1.473 1.325M72.48 26.3c-.493.344-.775-.385-1.004-.73-.253-.378-.59-.867-.67-1.26.124-.01.224-.044.268-.134.29.047.275.392.537.465.59-.253 1.07-.62 1.608-.928-.314-.618-.732-1.132-1.073-1.725-.584.307-1.122.656-1.608 1.062.017.27.23.348.27.595-.122.08-.23.175-.335.267-.528-.65-.962-1.392-1.407-2.124.12-.06.193-.16.336-.198.258.012.16.37.403.397 1.507-.5 2.517-1.488 3.75-2.255-.033-.277-.233-.388-.27-.664.09-.067.25-.062.27-.198.64.54.96 1.398 1.475 2.055-.02.18-.282.12-.334.268-.225-.09-.234-.39-.47-.467-.673.13-.996.61-1.542.864.246.665.75 1.07 1.008 1.725.496-.39 1.243-.536 1.538-1.13.013-.278-.255-.277-.268-.528.138-.04.218-.14.334-.2.53.646.995 1.358 1.406 2.123-.09.065-.247.063-.268.198-.296-.013-.234-.386-.47-.463-1.44.56-2.48 1.522-3.683 2.32-.11.385.358.446.2.665m-8.438 35.887c-4.888 5.022-11.146 8.455-19.964 9.087-4.506.324-8.934-.673-12.392-2.058-3.55-1.415-6.44-3.413-8.844-5.705-4.98-4.745-8.755-10.67-9.244-19.698-.5-9.25 3.308-16.3 7.704-21.095 3.33-3.63 7.937-6.68 13.665-8.16 1.997-.515 4.283-.803 6.432-.928 9.465-.556 16.493 3.323 21.37 7.76 4.946 4.505 8.625 11.154 9.11 19.835.513 9.187-3.354 16.352-7.838 20.962m-.94 12.802c-.317-.335.146-.524.335-.73-.744-1.34-1.61-2.564-2.61-3.647-.274.016-.356.225-.604.264-.067-.087-.063-.245-.2-.264.966-1.033 2.4-1.604 3.414-2.588.52.236.834.678 1.006 1.26-.423.398-.508-.217-.87-.265-.694-.088-1.128.71-1.674.992.25.505.653.858.935 1.33.46-.21.87-.47 1.14-.863.123-.398-.263-.542-.133-.73.053-.057.185-.04.2-.134.692.334.85 1.194 1.406 1.66-.06.117-.248.107-.268.264-.39.03-.335-.377-.672-.396-.56.083-.81.478-1.203.73.26.627.683 1.092 1.07 1.592.843-.464 1.832-.937 1.542-2.32.17-.01.235-.125.334-.2.3.433.358 1.104.538 1.658-1.22.758-2.425 1.886-3.686 2.385m-2.21 1.128c-1.044-.338-1.927-1.185-2.946-1.328.103.476.398 1.33.803 1.726.317.027.353-.228.67-.2.055.168.184.26.2.465-.838.274-1.57.656-2.276 1.064-.125-.075-.143-.257-.27-.333.047-.284.48-.188.537-.462-.497-1.478-1.215-2.732-1.94-3.98-.38-.102-.526.278-.74.133-.247-.398.476-.67.938-.927.983-.548 3.855-1.662 3.818.66-.007.494-.29.74-.534 1.13.878.375 1.686 1.356 2.946.928.1.103.088.31.203.4-.445.266-.995.426-1.41.728M50.98 78.64c-1.848-1.53-1.23-4.692 1.075-5.11 1.835-.332 3.195.823 3.412 2.257.38 2.49-2.297 4.66-4.487 2.853m-4.088-.73c-.025.476.068 1.385.27 1.855.233.048.635-.07.67 0 .06.075.09.18.065.33-.58.32-1.947.535-2.612.333v-.133c-.02-.377.525-.188.672-.396-.164-1.498-.384-2.937-.604-4.38h-.803v-.464c1.338-.1 3.184-.774 4.154.066 1.165 1.008.05 3.288-1.81 2.788m-5.024 2.717v-.533h.54c.035-.565-.298-.766-.337-1.26-.638.147-1.21-.177-1.61-.063-.51.145-.42.66-.737 1.062.054.278.56.11.67.33v.2c-.038.383-.603.153-1.005.133-.394-.018-1.193.168-1.07-.333.01-.208.265-.18.47-.196.982-1.568 1.7-3.398 2.544-5.108h.2c.542.72.807 1.693 1.14 2.586.334.902.668 1.785 1.07 2.588.14.146.493.087.605.265-.082.88-1.68.12-2.48.33m-4.153-2.785c-.307.58-.38 1.39-.535 2.123-2.435.668-4.667-.4-4.69-2.59-.03-2.494 3.06-4.018 5.022-2.387.04-.224.202-.332.537-.265-.034.742-.063 1.485-.268 2.056-.12.007-.144-.083-.27-.067-.204-1.213-1.097-2.08-2.41-1.657-1.87.6-1.876 5.184.94 4.442.222-.528.373-1.13.4-1.855-.004-.245-.677-.168-.536-.333v-.33c.693.024 1.832.17 2.412.53-.08.01-.058.12-.068.197.04.263-.37.08-.536.135m-6.565-1.46c-.335.813-.664 1.682-1.006 2.452-.72-.46-.75-1.495-1.006-2.32-.26-.838-.664-1.68-.803-2.52-.59.765-.883 1.82-1.206 2.85.01.366.545.216.535.6-.076.01-.055.122-.066.2-.6-.1-1.502-.456-2.078-.8-.017-.192.15-.203.135-.396.237.03.355.177.668.132.367-.37.508-1.106.804-1.855.254-.645.818-1.38.805-1.856-.02-.575-.643-.783-1.138-1.13-.66.36-.923 1.162-1.275 1.79-.366.654-.804 1.305-1.006 2.058-.03.383.52.19.47.598-.37.42-.827-.128-1.207-.332-.422-.23-.89-.433-1.273-.6.016-.2.146-.297.2-.463.307-.036.285.25.606.2.37-.348.78-1.052 1.203-1.79.456-.79 1.55-2.066.47-2.454.06-.14.205-.197.203-.4 1.38.467 2.274 1.42 3.682 1.86.457 1.47.98 2.875 1.338 4.444.35-.903 1.728-2.524.605-3.252.092-.02.054-.167.066-.265.64.037 1.463.45 2.08.73.054.185-.097.17-.068.33-.19.18-.276-.116-.537-.065-.643.527-.873 1.44-1.206 2.254m-12.06-3.715c-.143-.066-.466.187-.668-.066.09-.38.423-.672.67-.995.208-.274.365-.77.737-.73.01.057.065.068.065.133.174.225-.1.327-.135.598-.088.71.263 1.938 1.273 1.725.238-.048.547-.365.47-.927-.124-.893-.96-1.493-.937-2.52.038-1.84 2.788-1.944 3.415-.134.11-.103.496-.103.605 0-.2.56-.755 1.327-1.272 1.79.02-.154-.197-.074-.202-.2-.126-.205.17-.374.203-.595.113-.752-.24-1.66-1.007-1.594-1.36.12.513 2.495.4 3.65-.192 2.062-3.37 1.223-3.615-.133M13.6 24.907c-.248-.502-.88-.86-1.54-1.327-.486-.347-1.185-1.136-1.677-1.194-.406-.05-.612.336-1.003.198.015-.547.628-1.054.94-1.524 1.328.274 2.698.508 4.017.794-.623-1.217-1.294-2.388-2.01-3.515.454-.384.625-1.634 1.41-1.262-.017.293-.274.35-.336.6.963 1.054 2.352 1.69 3.484 2.585.394.038.275-.435.6-.465.068.09.18.134.27.2-.4.777-.92 1.434-1.474 2.057-.044-.09-.143-.124-.268-.134-.12-.15.18-.314.2-.53-.574-.89-1.61-1.322-2.41-1.99.296.62.647 1.286 1.004 1.924.332.594.914 1.16.805 1.792-1.362-.18-2.626-.453-3.887-.73.453.613 1.537 1.176 2.278 1.724.376.04.323-.344.604-.398.752.31-.705 1.72-1.006 1.857-.38-.075-.09-.49 0-.664m-1.14 2.256c-1.2.328-2.57.728-3.817.995.82.538 1.805.913 2.815 1.26.234-.056.25-.327.334-.53.125.053.246.11.404.133-.026.623-.612 1.248-.74 1.988-.205-.016-.3-.142-.467-.2.04-.2.14-.343.2-.53-1.018-.804-2.505-1.144-3.684-1.79-.443.07-.623.402-.804.73-.158-.02-.28-.08-.403-.133.13-.578.473-.946.602-1.525 1.48-.37 2.89-.81 4.422-1.128-.79-.477-1.708-.83-2.613-1.194-.408.114-.336.756-.873.398.213-.693.6-1.217.804-1.924.242-.04.326.077.47.133-.04.203-.143.346-.2.53 1.158 1.03 3.074 1.41 4.554 2.19-.038.495-.653.5-1.005.597m-1.607 30.78c.188.72.487 1.33.67 2.056-.69-.27-1.136-.778-1.742-1.128-.67.328-1.22.783-1.74 1.26-.038-.61.353-1.373.536-1.99-.498-.547-1.165-.926-1.81-1.323.653-.106 1.39-.127 2.143-.134.317-.595.49-1.328.67-2.058.355.595.506 1.402.8 2.058h2.147c-.527.448-1.066.888-1.674 1.26M4.42 41.755c-.01-.08-.12-.057-.2-.066-.055-1.684-.1-3.67.87-4.643.886-.89 2.668-.883 3.62-.2 1.123.808 1.143 2.613.936 4.378-.04.34.117.914-.402.794-.27.026-.072-.413-.133-.596-1.21-.35-2.803-.32-4.355-.332-.28.057.05.71-.334.664M5.227 33c.138-.03.175.044.267.066.328.04-.006.387.066.597.876.263 2.348 1.2 3.75.93.92-.178 1.178-1.744.405-2.324-.798-.597-2.43-.496-3.552-.797-.258.142-.074.723-.67.53.263-.733-.025-2.013.87-2.122.135.17-.165.37 0 .6 1.198 1.12 4.21.425 4.49 2.453.102.727-.15 1.692-.67 2.256-1.193 1.286-3.284-.272-4.825-.266-.26.05-.19.43-.334.596-.154.02-.257-.01-.336-.067-.097-.567.343-1.736.538-2.454m10.918-19.17c1.51.093 3.533 2.016 5.09 2.055.394.01.498-.372.807 0-.48.654-1.058 1.21-1.744 1.658-.335-.25-.2-.415.068-.663-.18-.352-.715-.357-1.003-.598-.54.306-.942.75-1.34 1.195.104.382.224.75.402 1.062.338-.04.505-.423.804-.135-.3.68-.88 1.077-1.474 1.46-.005-2.06-1.182-3.91-1.742-5.838.065-.048.102-.12.134-.198m4.354-3.185c1.4.492 2.85.935 4.29 1.392-.557-.8-.965-1.745-1.677-2.387-.372-.115-.478.272-.668.132-.282-.723 1.21-.89 1.54-1.46.167.055.21.232.335.332-.042.267-.403.22-.47.464.708 1.6 1.835 2.784 2.614 4.313-.803.153-1.667-.275-2.48-.53-.82-.26-1.63-.564-2.41-.795.385.744.988 1.852 1.674 2.52.372.112.48-.274.67-.132.036.096.1.166.134.264-.493.482-1.095.863-1.81 1.128.013-.167-.1-.207-.197-.265.16-.17.353-.313.535-.465-.6-1.263-1.473-2.255-2.142-3.45-.492-.04-.86.035-1.138.2-.08-.1-.084-.273-.204-.332.403-.377.973-.585 1.408-.928M33.964 4.54c.886-.052 1.64-.232 2.478-.33.037.117-.08.39.068.398-.16.13-.425.155-.672.2-.03.695.148 1.18.203 1.79.734-.025 1.316-.2 2.01-.266-.032-.656-.173-1.2-.268-1.79h-.74c.05-.203-.066-.242-.066-.4.784-.197 1.646-.316 2.548-.396-.057.187.095.17.067.332-.075.235-.484.137-.67.265.17 1.49.374 2.945.67 4.31h.737c-.04.216.044.31.067.465-.943-.022-1.764.417-2.612.266v-.266c.036-.25.48-.097.602-.265.09-.556-.118-1.323-.2-1.924-.63.15-1.38.18-2.01.33.124.608.16 1.304.336 1.858h.736c-.05.204.07.242.066.398-.8.14-1.826.398-2.546.4.05-.203-.07-.243-.066-.4.166-.078.392-.095.604-.132-.013-1.648-.41-2.914-.604-4.378h-.736V4.54zm6.43-.86c.867.116 1.96-.21 2.545.066v.332c-.126.117-.443.05-.67.065-.056 1.278-.025 3.027.135 4.313.073.213.53.048.668.198v.398c-.79.016-1.85.113-2.48.066-.05-.06-.07-.15-.065-.265-.044-.307.366-.168.603-.2.26-1.285.008-3.002-.066-4.376-.126-.118-.444-.05-.67-.068v-.53zm7.704.463c.228-.02.07-.416.47-.264.262.38.137 1.498.063 1.988-.64-.113-.397-.475-.598-.796-.83-1.324-2.917-.71-3.216.73-.347 1.657.6 3.587 2.544 2.92-.032-.588.302-1.17.134-1.66-.137-.4-.668-.236-.604-.73.197-.238.778-.04 1.208 0 .422.04 1.124-.086 1.14.333.076.384-.555.072-.606.33-.134.617-.152 1.353-.198 2.057-2.39 1.212-5.105-.372-4.824-2.92.203-1.855 2.52-3.03 4.488-1.99M49.84 9.25c.496-.49.584-1.344.805-2.056.218-.71.61-1.44.466-2.19-.063-.134-.254-.142-.465-.13-.034-.21.12-.236.066-.466.876.192 1.733.405 2.48.73.028.16-.12.144-.067.33-1.01-.263-1.073.91-1.34 1.593.52.325 1.302.392 1.876.665.32-.41.465-.998.536-1.658-.043-.27-.37-.254-.537-.4.01-.636.905-.122 1.337 0 .473.137 1.385.165 1.072.73-.277.053-.343-.1-.605-.066-.25.372-.553 1.142-.804 1.925-.31.98-1.027 2.294 0 2.52.05.204-.065.243-.065.4-.82-.228-1.664-.43-2.412-.73-.047-.202.07-.242.066-.398.222 0 .334.11.604.065.503-.297.382-1.21.67-1.725-.512-.31-1.296-.35-1.812-.662-.32.475-.45 1.144-.603 1.79.07.243.415.21.602.333-.008.187-.12.275-.133.464-.752-.295-1.618-.476-2.412-.73 0-.157.115-.194.068-.397.184-.164.34.103.604.065m13.8 4.58c.266.21-.15.445-.203.728-.508 1.354 1.6 2.477 1.743 1.13.078-.72-1.014-2-.805-3.054.278-1.394 2.873-1.44 3.283.266.254-.143.44.004.67.066-.127.298-.458.657-.737.995-.21.258-.538.914-.802.533-.083-.287.442-1.016.066-1.726-.245-.46-.792-.616-1.34-.266-.216 1.347 1.105 1.996.805 3.452-.202.967-1.655 1.453-2.615.796-.422-.29-.59-.776-.937-1.262-.314.167-.368.068-.67-.066.48-.528.81-1.528 1.542-1.59m8.438 3.514c.194.186.45-.248.604.067-.084.63-.938 1.406-1.404 1.658-.276-.468.168-.704.2-1.193.195-3.036-3.986-1.526-4.09.598-.03.667.38 1.54 1.274 1.724.423.087 1.067-.266 1.274.265-.216.433-.832.36-1.14.33-1.09-.1-2.198-1.123-2.345-2.188-.472-3.42 4.946-4.655 5.628-1.26m6.568 12.14c-.484.976-2.172 1.88-3.82 1.393-1.136-.336-2.128-1.903-1.54-3.517.3-.823 1.3-1.565 2.546-1.724 2.116-.268 3.803 1.85 2.814 3.848m2.077 4.577c.05 1.126-.69 2.142-1.34 2.52-1.813 1.06-5.478-.24-4.355-3.315.237-.66.842-1.384 2.277-1.592 1.783-.26 3.342.71 3.418 2.388m3.146-2.587c-2.267-8.036-6.188-14.497-11.657-19.7C66.9 6.716 60.075 2.702 51.65.892 46.947-.117 42.094-.2 37.18.297c-4.67.47-8.694 1.896-12.26 3.515-7.168 3.25-12.93 7.954-17.216 14.196C3.348 24.348.208 31.546 0 41.822v1.327c.366 12.976 5.724 21.69 12.26 28.656 6.54 6.97 15.906 11.692 28.538 12.534.05.017.13.003.132.068h4.49c9.615-.787 16.884-3.994 22.84-8.557 6.052-4.636 10.803-10.228 13.802-17.58 2.944-7.22 4.338-17.823 1.807-26.797"/>
</svg>
